<svg width="84" height="84" viewBox="0 0 146 146" fill="none" opacity="0.8" xmlns="http://www.w3.org/2000/svg">
<path d="M55.0286 68.5967C60.5683 68.5967 65.0591 64.1058 65.0591 58.5661C65.0591 53.0264 60.5683 48.5356 55.0286 48.5356C49.4889 48.5356 44.9981 53.0264 44.9981 58.5661C44.9981 64.1058 49.4889 68.5967 55.0286 68.5967Z" fill="#3C7C9C"/>
<path d="M137.363 95.4841C132.626 91.0261 126.635 88.1005 120.088 87.2646V36.2761C120.088 30.8429 117.859 25.9669 114.376 22.3448C110.754 18.7226 105.878 16.6329 100.445 16.6329H19.6431C14.2099 16.6329 9.33397 18.8619 5.71183 22.3448C2.08969 25.9669 0 30.8429 0 36.2761V100.499V106.49V119.446C0 124.879 2.22901 129.755 5.71183 133.377C9.33397 136.999 14.2099 139.089 19.6431 139.089H97.7977C102.952 143.268 109.361 145.915 116.466 145.915C124.685 145.915 132.069 142.572 137.363 137.278C142.656 131.984 146 124.6 146 116.381C146 108.162 142.656 100.778 137.363 95.4841ZM7.38359 36.2761C7.38359 32.9326 8.77672 29.8677 11.0057 27.778C13.2347 25.549 16.2996 24.1558 19.6431 24.1558H100.445C103.788 24.1558 106.853 25.549 109.082 27.778C111.311 30.007 112.704 33.0719 112.704 36.4154V79.881L92.0859 59.2627C90.6927 57.8696 88.3244 57.7303 86.792 59.2627L55.7252 90.4688L34.6889 69.2932C33.2958 67.9001 30.9275 67.7608 29.395 69.2932L7.38359 91.5833V36.2761ZM19.5038 131.984V131.705C16.1603 131.705 13.0954 130.312 10.8664 128.083C8.77672 125.854 7.38359 122.789 7.38359 119.446V106.49V102.171L32.042 77.3734L53.0782 98.4096C54.4714 99.8028 56.8397 99.8028 58.3721 98.4096L89.4389 67.2035L109.779 87.6825C109.361 87.8219 108.943 87.9612 108.525 88.1005C107.968 88.2398 107.41 88.3791 106.714 88.6577C106.156 88.7971 105.599 89.0757 105.042 89.215C104.624 89.3543 104.345 89.4936 103.927 89.7722C103.37 90.0509 102.952 90.1902 102.534 90.4688C101.838 90.8867 101.141 91.3047 100.445 91.7226C100.027 92.0013 99.7481 92.1406 99.3302 92.4192C99.0515 92.5585 98.9122 92.6978 98.6336 92.8371C97.3798 93.673 96.2653 94.6482 95.2901 95.7627C89.9962 101.057 86.6527 108.44 86.6527 116.66C86.6527 118.749 86.9313 120.7 87.3492 122.789C87.4885 123.347 87.6279 123.765 87.7672 124.322C88.1851 125.715 88.6031 127.108 89.1603 128.501V128.641C89.7176 129.755 90.2748 131.009 90.9714 131.984H19.5038ZM131.929 131.984C127.889 136.024 122.456 138.392 116.326 138.392C110.475 138.392 105.042 136.024 101.141 132.263C100.584 131.705 100.027 131.009 99.4695 130.452C99.0515 130.034 98.6336 129.476 98.2156 129.058C97.6584 128.362 97.2405 127.526 96.8225 126.69C96.5439 126.133 96.2653 125.715 95.9866 125.158C95.708 124.461 95.4294 123.625 95.2901 122.789C95.1508 122.232 94.8721 121.536 94.7328 120.978C94.4542 119.585 94.3149 118.053 94.3149 116.52C94.3149 110.391 96.8225 104.957 100.723 100.917C104.624 96.8772 110.197 94.5089 116.326 94.5089C122.456 94.5089 127.889 97.0165 131.929 100.917C135.969 104.957 138.338 110.391 138.338 116.52C138.338 122.511 135.83 127.944 131.929 131.984Z" fill="#3C7C9C"/>
<path d="M118.973 101.475C118.695 101.196 118.277 100.917 117.719 100.639C117.302 100.499 116.884 100.36 116.466 100.36C116.326 100.36 116.326 100.36 116.326 100.36C116.187 100.36 116.187 100.36 116.187 100.36C115.769 100.36 115.351 100.499 114.933 100.639C114.515 100.778 114.097 101.057 113.679 101.475L105.042 110.112C103.649 111.505 103.649 113.873 105.042 115.406C106.435 116.799 108.803 116.799 110.336 115.406L112.565 113.177V128.501C112.565 130.591 114.237 132.263 116.326 132.263C118.416 132.263 120.088 130.591 120.088 128.501V113.177L122.317 115.406C123.71 116.799 126.078 116.799 127.611 115.406C129.004 114.013 129.004 111.644 127.611 110.112L118.973 101.475Z" fill="#3C7C9C"/>
</svg>
